HIERARCHY
ROOT Hips
{
	OFFSET 0.00000 0.00000 0.00000
	CHANNELS 6 Xposition Yposition Zposition Zrotation Yrotation Xrotation 
	JOINT LHipJoint
	{
		OFFSET 0 0 0
		CHANNELS 3 Zrotation Yrotation Xrotation
		JOINT LeftUpLeg
		{
			OFFSET 1.55020 -1.87941 0.79896
			CHANNELS 3 Zrotation Yrotation Xrotation
			JOINT LeftLeg
			{
				OFFSET 2.65269 -7.28822 0.00000
				CHANNELS 3 Zrotation Yrotation Xrotation
				JOINT LeftFoot
				{
					OFFSET 2.61200 -7.17641 0.00000
					CHANNELS 3 Zrotation Yrotation Xrotation
					JOINT LeftToeBase
					{
						OFFSET 0.09338 -0.25656 1.92461
						CHANNELS 3 Zrotation Yrotation Xrotation
						End Site
						{
							OFFSET 0.00000 -0.00000 0.98480
						}
					}
				}
			}
		}
	}
	JOINT RHipJoint
	{
		OFFSET 0 0 0
		CHANNELS 3 Zrotation Yrotation Xrotation
		JOINT RightUpLeg
		{
			OFFSET -1.56866 -1.87941 0.79895
			CHANNELS 3 Zrotation Yrotation Xrotation
			JOINT RightLeg
			{
				OFFSET -2.60199 -7.14892 0.00000
				CHANNELS 3 Zrotation Yrotation Xrotation
				JOINT RightFoot
				{
					OFFSET -2.62841 -7.22151 0.00000
					CHANNELS 3 Zrotation Yrotation Xrotation
					JOINT RightToeBase
					{
						OFFSET -0.19532 -0.53663 1.93132
						CHANNELS 3 Zrotation Yrotation Xrotation
						End Site
						{
							OFFSET -0.00000 -0.00000 1.00896
						}
					}
				}
			}
		}
	}
	JOINT LowerBack
	{
		OFFSET 0 0 0
		CHANNELS 3 Zrotation Yrotation Xrotation
		JOINT Spine
		{
			OFFSET 0.06381 2.07806 -0.22112
			CHANNELS 3 Zrotation Yrotation Xrotation
			JOINT Spine1
			{
				OFFSET -0.02881 2.08890 0.01825
				CHANNELS 3 Zrotation Yrotation Xrotation
				JOINT Neck
				{
					OFFSET 0 0 0
					CHANNELS 3 Zrotation Yrotation Xrotation
					JOINT Neck1
					{
						OFFSET 0.02418 1.74325 -0.02023
						CHANNELS 3 Zrotation Yrotation Xrotation
						JOINT Head
						{
							OFFSET -0.01704 1.71677 0.04090
							CHANNELS 3 Zrotation Yrotation Xrotation
							End Site
							{
								OFFSET -0.00946 1.78238 0.01684
							}
						}
					}
				}
				JOINT LeftShoulder
				{
					OFFSET 0 0 0
					CHANNELS 3 Zrotation Yrotation Xrotation
					JOINT LeftArm
					{
						OFFSET 3.39783 1.34157 0.16610
						CHANNELS 3 Zrotation Yrotation Xrotation
						JOINT LeftForeArm
						{
							OFFSET 5.15218 -0.00000 0.00000
							CHANNELS 3 Zrotation Yrotation Xrotation
							JOINT LeftHand
							{
								OFFSET 3.49459 -0.00000 0.00000
								CHANNELS 3 Zrotation Yrotation Xrotation
								JOINT LeftFingerBase
								{
									OFFSET 0 0 0
									CHANNELS 3 Zrotation Yrotation Xrotation
									JOINT LeftHandIndex1
									{
										OFFSET 0.51247 -0.00000 0.00000
										CHANNELS 3 Zrotation Yrotation Xrotation
										End Site
										{
											OFFSET 0.41316 -0.00000 0.00000
										}
									}
								}
								JOINT LThumb
								{
									OFFSET 0 0 0
									CHANNELS 3 Zrotation Yrotation Xrotation
									End Site
									{
										OFFSET 0.41947 -0.00000 0.41947
									}
								}
							}
						}
					}
				}
				JOINT RightShoulder
				{
					OFFSET 0 0 0
					CHANNELS 3 Zrotation Yrotation Xrotation
					JOINT RightArm
					{
						OFFSET -3.26224 1.05509 0.01188
						CHANNELS 3 Zrotation Yrotation Xrotation
						JOINT RightForeArm
						{
							OFFSET -5.44344 -0.00000 0.00000
							CHANNELS 3 Zrotation Yrotation Xrotation
							JOINT RightHand
							{
								OFFSET -3.58403 -0.00000 0.00000
								CHANNELS 3 Zrotation Yrotation Xrotation
								JOINT RightFingerBase
								{
									OFFSET 0 0 0
									CHANNELS 3 Zrotation Yrotation Xrotation
									JOINT RightHandIndex1
									{
										OFFSET -0.34249 -0.00000 0.00000
										CHANNELS 3 Zrotation Yrotation Xrotation
										End Site
										{
											OFFSET -0.27612 -0.00000 0.00000
										}
									}
								}
								JOINT RThumb
								{
									OFFSET 0 0 0
									CHANNELS 3 Zrotation Yrotation Xrotation
									End Site
									{
										OFFSET -0.28034 -0.00000 0.28034
									}
								}
							}
						}
					}
				}
			}
		}
	}
}
MOTION
Frames: 11
Frame Time: .0083333
-14.3538 17.5607 1.5942 0 0 0 0 0 0 -21 0 0 0 0 0 0 0 0 0 0 0 0 0 0 21 0 0 0 0 0 0 0 0 0 0 0 0 0 0 0 0 0 0 0 0 0 0 -16 0 0 21 0 0 11 0 0 0 -8 0 0 0 0 0 0 0 0 0 0 0 0 0 0 0 0 0 0 0 0 8 0 0 0 0 0 0 0 0 0 0 0 0 0 0 0 0 0
-14.3538 17.5607 1.5942 177.5010 -86.8053 -176.8550 0.0000 0.0000 0.0000 -18.2200 -1.2978 -10.6478 3.9373 12.0765 36.0030 1.2948 -9.7676 -20.4707 1.0700 -6.5758 -18.4645 0.0000 0.0000 0.0000 16.7626 8.9872 -10.3152 -4.0669 -12.2489 36.6181 -1.7223 3.7258 -23.9031 -1.1310 6.7546 -18.9904 5.3065 0.4255 6.7391 1.1946 1.1802 -5.2954 -1.8726 0.2380 -9.3492 -6.8183 -9.6079 -3.2934 -1.6898 -12.4334 9.5827 -0.0014 -6.5098 4.0801 0.0000 0.0000 0.0000 -23.9567 22.2356 -29.6712 134.9174 -50.8089 -97.6972 -0.0000 0.0000 -4.7788 18.1089 18.1113 5.8047 -7.1250 0.0000 -0.0000 -9.7160 48.7240 -0.9002 0.0000 0.0000 0.0000 74.4076 -10.0021 -39.7981 -24.3182 35.4989 -7.8905 0.0000 -0.0000 -24.6095 -58.5595 -50.7826 51.7223 7.1250 -0.0000 -0.0000 175.8206 -6.9725 -3.6512
-14.3421 17.5607 1.5760 172.5750 -87.6898 -172.0950 0.0000 0.0000 0.0000 -18.3116 -1.6751 -10.4706 3.9257 12.0609 35.9478 1.2507 -9.8876 -20.1443 1.1233 -6.7324 -18.9250 0.0000 0.0000 0.0000 16.6948 8.4669 -10.1707 -4.0682 -12.2506 36.6244 -1.7308 3.2541 -24.0518 -1.1671 6.8578 -19.2948 5.1860 0.3104 6.7496 1.0154 1.0003 -5.1442 -1.9709 0.1615 -9.1994 -7.9182 -10.8064 -2.5772 -0.9931 -14.1007 9.1192 0.3489 -7.3296 3.9850 -0.0000 0.0000 0.0000 -27.0408 23.5334 -30.7363 133.0864 -51.6723 -96.2693 -0.0000 0.0000 -4.6975 17.4389 17.9561 5.5314 -7.1250 0.0000 -0.0000 -10.3041 48.4674 -0.8901 -0.0000 0.0000 0.0000 73.5104 -9.5806 -37.0233 -25.0416 36.2465 -8.3145 0.0000 -0.0000 -23.9329 -58.6840 -51.5498 52.1580 7.1250 -0.0000 -0.0000 176.1969 -7.5948 -3.2745
-14.3218 17.5603 1.5575 165.9740 -88.4384 -165.6340 0.0000 0.0000 0.0000 -18.3128 -2.0435 -10.3741 3.9261 12.0614 35.9494 1.2106 -10.0350 -19.8507 1.1384 -6.7759 -19.0530 0.0000 0.0000 0.0000 16.7110 8.0392 -10.0901 -4.0697 -12.2526 36.6316 -1.7336 2.9235 -24.1385 -1.1380 6.7748 -19.0500 5.1266 0.1738 6.8446 0.8692 0.8067 -5.0298 -2.0670 0.0718 -9.1425 -9.3378 -11.8590 -1.5574 0.0902 -15.6327 8.5594 0.8945 -8.0799 3.9007 0.0000 -0.0000 0.0000 -30.0761 25.3100 -31.3372 131.4560 -52.3911 -94.9840 -0.0000 0.0000 -4.9858 17.7673 18.5331 5.8156 -7.1250 0.0000 -0.0000 -10.1722 49.1028 -1.0390 0.0000 -0.0000 0.0000 72.6334 -9.1376 -34.1136 -25.9392 37.1486 -8.8509 0.0000 -0.0000 -23.3483 -58.8767 -51.9112 52.5062 7.1250 -0.0000 -0.0000 176.3403 -7.9628 -3.1240
-14.2990 17.5599 1.5395 152.0420 -88.9838 -151.8450 0.0000 0.0000 0.0000 -18.3335 -2.3108 -10.2966 3.9244 12.0591 35.9413 1.1677 -10.2279 -19.5399 1.1208 -6.7251 -18.9033 0.0000 0.0000 0.0000 16.6980 7.7190 -9.9977 -4.0680 -12.2503 36.6232 -1.7379 2.7476 -24.2074 -1.0706 6.5775 -18.4696 5.0741 0.0586 7.0047 0.7019 0.6457 -4.9729 -2.1941 -0.0073 -9.1853 -11.1272 -12.7500 -0.1940 1.5092 -17.0298 7.9887 1.6303 -8.7725 3.8675 -0.0000 -0.0000 0.0000 -33.1330 26.9759 -31.7350 129.7933 -53.0785 -93.6607 -0.0000 0.0000 -5.3389 18.2179 19.0331 6.1263 -7.1250 0.0000 -0.0000 -9.9005 49.6811 -1.1527 -0.0000 -0.0000 0.0000 71.8368 -8.7382 -31.1613 -26.9793 38.1594 -9.4863 0.0000 -0.0000 -22.9114 -58.9229 -51.8213 52.5226 7.1250 -0.0000 -0.0000 176.2794 -7.9263 -3.1789
-14.2862 17.5597 1.5212 127.0970 -89.4787 -127.0330 0.0000 0.0000 0.0000 -18.1691 -2.4997 -10.2206 3.9250 12.0599 35.9443 1.1216 -10.5038 -19.2154 1.0926 -6.6427 -18.6609 0.0000 0.0000 0.0000 16.8584 7.3743 -9.8784 -4.0658 -12.2475 36.6133 -1.7419 2.4929 -24.2923 -1.0642 6.5584 -18.4135 5.1718 -0.0570 6.9883 0.5824 0.4908 -4.8834 -2.3538 -0.0877 -9.0889 -11.5630 -13.4088 0.5225 1.5384 -17.9980 7.8695 1.6894 -9.2672 3.8126 0.0000 -0.0000 0.0000 -36.2316 27.6606 -32.4986 127.2743 -54.0374 -91.6341 -0.0000 0.0000 -4.9306 18.4847 19.1234 6.2500 -7.1250 0.0000 -0.0000 -9.6727 49.8149 -1.1578 0.0000 -0.0000 0.0000 71.0173 -8.1778 -28.4142 -28.0108 39.1262 -10.1305 0.0000 -0.0000 -22.4435 -58.4229 -51.6417 51.9088 7.1250 -0.0000 -0.0000 176.3158 -7.5085 -3.1779
-14.2773 17.5581 1.5056 51.9629 -89.4441 -52.0096 0.0000 0.0000 0.0000 -18.1218 -2.7430 -10.1373 3.9292 12.0656 35.9643 1.0765 -10.7724 -18.8998 1.0851 -6.6205 -18.5958 0.0000 0.0000 0.0000 16.8613 6.7298 -9.8606 -4.0614 -12.2416 36.5922 -1.7494 2.4188 -24.3636 -1.0778 6.5989 -18.5324 5.1892 -0.2270 6.8754 0.4466 0.2462 -4.7814 -2.4726 -0.2052 -8.9300 -12.0709 -13.9087 1.1041 1.6818 -18.7512 7.8751 1.7950 -9.6568 3.8398 -0.0000 0.0000 0.0000 -39.3850 28.5688 -33.1816 125.0748 -54.7986 -89.8451 -0.0000 0.0000 -3.8495 18.6032 19.5398 6.4233 -7.1250 0.0000 -0.0000 -9.6936 50.2589 -1.2669 -0.0000 0.0000 0.0000 70.2415 -7.4832 -25.8038 -29.1324 40.1380 -10.8460 0.0000 -0.0000 -21.8750 -58.6368 -51.5729 52.1154 7.1250 -0.0000 -0.0000 176.2219 -7.5837 -3.2537
-14.2630 17.5565 1.4927 33.6680 -88.9236 -33.8104 0.0000 0.0000 0.0000 -18.2518 -3.0064 -10.0799 3.9402 12.0803 36.0168 1.0453 -10.9104 -18.6734 1.1028 -6.6725 -18.7487 0.0000 0.0000 0.0000 16.6574 5.9826 -9.9423 -4.0516 -12.2288 36.5462 -1.7569 2.6083 -24.3742 -1.0739 6.5873 -18.4983 5.1067 -0.3595 6.8373 0.2451 0.0424 -4.7052 -2.6118 -0.3013 -8.8407 -12.5244 -14.2611 1.8161 2.1504 -19.3607 8.0216 1.8004 -9.9554 3.5258 0.0000 -0.0000 0.0000 -42.3607 29.4344 -33.7191 122.8586 -55.4988 -88.0264 -0.0000 0.0000 -2.2465 17.7754 19.3694 6.0692 -7.1250 0.0000 -0.0000 -10.4368 49.9539 -1.2869 0.0000 -0.0000 0.0000 69.6645 -6.8379 -23.2965 -30.4399 41.2675 -11.6987 0.0000 -0.0000 -21.3554 -59.7263 -50.9448 53.0673 7.1250 -0.0000 -0.0000 175.5922 -7.7875 -3.7814
-14.2467 17.5575 1.4730 19.4923 -88.7985 -19.6867 0.0000 0.0000 0.0000 -17.9484 -3.1584 -10.1137 3.9534 12.0981 36.0801 1.0293 -10.9553 -18.5519 1.1221 -6.7288 -18.9145 0.0000 0.0000 0.0000 16.9341 5.7373 -9.9826 -4.0411 -12.2149 36.4964 -1.7472 2.5645 -24.3144 -1.1038 6.6756 -18.7577 5.2429 -0.3896 6.7707 0.1670 0.0056 -4.6140 -2.7666 -0.3241 -8.7069 -12.7469 -14.5368 2.2672 2.3048 -19.8090 8.0857 1.8684 -10.1870 3.5436 0.0000 0.0000 0.0000 -45.2596 30.1025 -34.0371 120.6050 -56.1466 -86.1618 -0.0000 0.0000 -0.8384 17.0894 18.6965 5.6284 -7.1250 0.0000 -0.0000 -10.8711 49.1664 -1.1290 0.0000 0.0000 0.0000 69.0742 -6.0731 -20.8454 -31.6782 42.2891 -12.5238 0.0000 -0.0000 -21.0036 -60.1720 -50.4754 53.3761 7.1250 -0.0000 -0.0000 175.2186 -7.7314 -4.1094
-14.2317 17.5576 1.4501 1.9670 -88.7662 -2.2337 0.0000 0.0000 0.0000 -17.4591 -3.2754 -10.1102 3.9640 12.1124 36.1307 1.0218 -10.9697 -18.4944 1.1303 -6.7527 -18.9846 0.0000 0.0000 0.0000 17.4342 5.7240 -9.9468 -4.0321 -12.2029 36.4537 -1.7295 2.4718 -24.2072 -1.1079 6.6876 -18.7932 5.4285 -0.4104 6.6283 0.1804 -0.0133 -4.4819 -2.8543 -0.3347 -8.4830 -12.8679 -14.6961 2.6144 2.4374 -20.0869 8.1667 1.9224 -10.3316 3.5599 -0.0000 0.0000 0.0000 -48.1449 30.7017 -34.3792 118.2567 -56.7569 -84.2046 -0.0000 -0.0000 0.4449 16.5177 17.9909 5.2334 -7.1250 0.0000 -0.0000 -11.1850 48.3690 -0.9404 -0.0000 0.0000 0.0000 68.3617 -5.1533 -18.4670 -32.7547 43.1407 -13.2541 0.0000 -0.0000 -20.2812 -64.3070 -50.5972 58.0919 7.1250 -0.0000 -0.0000 174.2288 -10.4542 -4.6525
-14.2161 17.5564 1.4316 0.9911 -88.6065 -1.3886 0.0000 0.0000 0.0000 -17.3843 -3.4468 -10.0048 3.9724 12.1236 36.1707 1.0149 -10.9714 -18.4382 1.0996 -6.6633 -18.7216 0.0000 0.0000 0.0000 17.4925 5.4453 -9.9201 -4.0207 -12.1879 36.3999 -1.7286 2.7073 -24.1485 -1.0458 6.5035 -18.2524 5.3250 -0.4683 6.5539 0.0988 -0.1133 -4.3571 -2.8694 -0.3720 -8.3118 -12.9389 -14.7457 2.9955 2.5926 -20.2236 8.1989 1.9929 -10.4046 3.5433 0.0000 0.0000 0.0000 -50.8461 31.2145 -34.7791 115.5692 -57.3795 -81.9488 -0.0000 -0.0000 1.5933 15.9392 17.7843 4.9854 -7.1250 0.0000 -0.0000 -11.6631 48.0781 -0.8971 0.0000 0.0000 0.0000 67.7350 -4.2816 -16.3593 -33.8772 43.9936 -14.0277 0.0000 -0.0000 -18.8304 -62.4004 -50.6684 55.9465 7.1250 -0.0000 -0.0000 174.7440 -9.2621 -4.3604
